<svg width="16" height="16" viewBox="0 0 16 16" fill="none" xmlns="http://www.w3.org/2000/svg">
<path fill-rule="evenodd" clip-rule="evenodd" d="M8 16C12.4183 16 16 12.4183 16 8C16 3.58172 12.4183 0 8 0C3.58172 0 0 3.58172 0 8C0 12.4183 3.58172 16 8 16Z" fill="#11999E"/>
<path fill-rule="evenodd" clip-rule="evenodd" d="M12.9497 6.29301C13.3403 5.90248 13.3403 5.26932 12.9497 4.8788C12.5592 4.48827 11.9261 4.48827 11.5355 4.8788L6.58579 9.82854L4.46447 7.70722C4.07394 7.3167 3.44078 7.3167 3.05025 7.70722C2.65973 8.09775 2.65973 8.73091 3.05025 9.12144L5.87868 11.9499C6.26921 12.3404 6.90237 12.3404 7.29289 11.9499L12.9497 6.29301Z" fill="white"/>
</svg>
