<svg width="300" height="119" viewBox="0 0 300 119" fill="none" xmlns="http://www.w3.org/2000/svg">
<path d="M5.9607 9.36946C8.41113 7.40912 14.1416 7.68304 16.7208 9.36946C19.9414 11.4752 12.3857 21.3818 10.9128 23.431C2.3545 35.3382 -2.63517 10.4699 8.16164 10.4699" stroke="black" stroke-width="3" stroke-linecap="round"/>
<path d="M285.961 99.3695C288.411 97.4091 294.142 97.683 296.721 99.3695C299.941 101.475 292.386 111.382 290.913 113.431C282.354 125.338 277.365 100.47 288.162 100.47" stroke="black" stroke-width="3" stroke-linecap="round"/>
<path d="M245.379 6.31726C247.772 5.83869 249.304 3.40529 251.493 2.40449C254.375 1.08696 256.573 9.91446 257.484 11.6362C259.638 15.7038 265.135 19.6795 267.388 12.9201" stroke="black" stroke-width="3" stroke-linecap="round"/>
<path d="M82.5101 117.464C87.4303 112.991 92.5854 110.792 99.2617 110.861C105.212 110.923 112.431 115.486 117.725 114.163" stroke="black" stroke-width="3" stroke-linecap="round"/>
</svg>
