<svg width="30" height="27" viewBox="0 0 30 27" fill="none" xmlns="http://www.w3.org/2000/svg">
<g clip-path="url(#clip0_67_327)">
<path fill-rule="evenodd" clip-rule="evenodd" d="M29.8803 19.7282C30.9628 24.5418 24.4606 27.9998 20.1423 26.1685C8.71133 21.3208 18.9261 4.49908 25.8479 0.176407C27.0345 -0.564518 28.1378 1.22212 26.9613 1.95648C23.8133 3.92296 21.4452 7.24183 19.794 10.3644C18.8087 12.2278 17.8009 14.4886 17.4604 16.7439C19.1068 15.1657 21.3569 14.1643 23.8022 14.5851C26.6277 15.071 29.2727 17.0262 29.8803 19.7282ZM24.3428 16.8221C21.565 16.071 19.2608 17.3886 17.8695 19.6262C17.8593 19.6425 17.8477 19.6558 17.8361 19.6692C17.8286 19.6778 17.8211 19.6863 17.814 19.6957C17.8167 20.1557 17.8249 20.6149 17.8554 21.0735C19.3574 24.7519 25.3108 26.2385 27.3812 22.0871C28.4722 19.8997 26.7164 17.4638 24.3428 16.8221Z" fill="white"/>
<path fill-rule="evenodd" clip-rule="evenodd" d="M14.8803 19.7282C15.9626 24.5418 9.46075 27.9998 5.14254 26.1685C-6.28886 21.3208 3.92612 4.49908 10.8481 0.176407C12.0344 -0.564518 13.138 1.22212 11.9615 1.95648C8.813 3.92296 6.44527 7.24183 4.79412 10.3644C3.80833 12.2278 2.8013 14.4886 2.46068 16.7439C4.10688 15.1657 6.35687 14.1643 8.80208 14.5851C11.6276 15.071 14.273 17.0262 14.8803 19.7282ZM9.34267 16.8221C6.56493 16.071 4.26047 17.3886 2.86928 19.6262C2.86471 19.6339 2.85922 19.64 2.85369 19.6462C2.84972 19.6506 2.84572 19.655 2.84205 19.6601C2.8502 20.3079 2.90857 20.9317 3.08222 21.5469C4.87875 24.8706 10.4021 26.0551 12.3807 22.0871C13.4719 19.8997 11.7161 17.4638 9.34267 16.8221Z" fill="white"/>
</g>
<defs>
<clipPath id="clip0_67_327">
<rect width="30" height="26.6667" fill="white"/>
</clipPath>
</defs>
</svg>
