<svg width="407" height="401" viewBox="0 0 407 401" fill="none" xmlns="http://www.w3.org/2000/svg">
<g clip-path="url(#clip0_67_52)">
<path d="M158.852 273.454L154.862 258.677C154.718 258.282 154.376 257.993 153.963 257.914C153.55 257.835 153.127 257.98 152.848 258.293L147.258 266.005C146.375 267.229 148.155 268.795 149.049 267.563L154.642 259.847C153.969 259.722 153.298 259.593 152.622 259.461L156.611 274.238C157.01 275.712 159.247 274.919 158.852 273.454Z" fill="#10100E"/>
<path d="M230.783 122.28C232.213 114.421 235.473 107.075 240.308 100.82C241.101 99.7839 239.492 98.3904 238.693 99.4343C233.634 105.969 230.217 113.642 228.706 121.855C228.458 123.155 230.523 123.571 230.767 122.266L230.783 122.28Z" fill="#10100E"/>
<path d="M48.3663 95.062C41.0806 97.2295 39.2319 107.173 44.1851 112.908C49.5498 119.117 59.1142 116.361 63.0304 110.514C67.3678 104.029 63.8498 94.4577 56.3751 91.5261C48.9006 88.5945 41.1164 94.302 40.9546 101.937C40.9068 103.986 44.1043 103.782 44.1431 101.756C44.2693 96.0085 50.7519 92.1722 56.0279 94.7921C61.3039 97.4119 63.5074 104.492 60.0253 109.137C57.3061 112.77 51.2907 114.998 47.279 111.565C42.8916 107.8 44.0525 99.7094 49.4817 98.0789C51.4444 97.4916 50.328 94.4637 48.3763 95.0504L48.3663 95.062Z" fill="#10100E"/>
<path d="M333.62 343.192C330.123 344.232 329.235 349.005 331.613 351.758C334.188 354.739 338.779 353.416 340.659 350.609C342.74 347.496 341.052 342.902 337.465 341.495C333.877 340.088 330.14 342.827 330.062 346.492C330.039 347.475 331.574 347.378 331.593 346.405C331.653 343.646 334.765 341.805 337.297 343.062C339.83 344.32 340.888 347.719 339.216 349.948C337.911 351.692 335.024 352.761 333.098 351.114C330.992 349.306 331.549 345.423 334.155 344.64C335.097 344.358 334.561 342.905 333.625 343.187L333.62 343.192Z" fill="#10100E"/>
</g>
<defs>
<clipPath id="clip0_67_52">
<rect width="192" height="392" fill="white" transform="translate(0 145.7) rotate(-49.3633)"/>
</clipPath>
</defs>
</svg>
