<svg width="28" height="28" viewBox="0 0 28 28" fill="none" xmlns="http://www.w3.org/2000/svg">
<path d="M8.39169 20.1845C7.42747 19.3806 6.8896 18.3637 6.77809 17.1337C6.66657 15.9036 7.01277 14.8065 7.81669 13.8423L13.3218 7.23948C13.8985 6.54776 14.6385 6.16095 15.5418 6.07905C16.4451 5.99716 17.2426 6.24457 17.9343 6.8213C18.626 7.39802 19.0128 8.13802 19.0947 9.04131C19.1766 9.9446 18.9292 10.7421 18.3525 11.4338L13.3717 17.4078C13.0047 17.848 12.5425 18.0934 11.9852 18.1439C11.4278 18.1944 10.9291 18.0362 10.4889 17.6692C10.0487 17.3022 9.80332 16.84 9.75279 16.2827C9.70226 15.7253 9.8605 15.2265 10.2275 14.7864L15.2083 8.81236L16.1516 9.5988L11.1708 15.5728C11.0222 15.751 10.958 15.9506 10.978 16.1716C10.998 16.3926 11.0971 16.5774 11.2753 16.7259C11.4535 16.8745 11.6531 16.9387 11.8741 16.9187C12.0951 16.8987 12.2799 16.7995 12.4284 16.6214L17.4092 10.6474C17.7762 10.2072 17.9345 9.70844 17.8839 9.15109C17.8334 8.59374 17.5881 8.13156 17.1479 7.76456C16.7077 7.39755 16.2089 7.23931 15.6516 7.28985C15.0942 7.34038 14.632 7.58574 14.265 8.02592L8.75995 14.6288C8.18322 15.3205 7.93581 16.118 8.01771 17.0213C8.0996 17.9246 8.48641 18.6646 9.17814 19.2413C9.86986 19.818 10.6674 20.0654 11.5707 19.9835C12.4739 19.9016 13.2139 19.5148 13.7907 18.8231L19.2958 12.2203L20.239 13.0067L14.7339 19.6095C13.93 20.5738 12.9131 21.1116 11.683 21.2231C10.453 21.3347 9.35592 20.9885 8.39169 20.1845Z" fill="#80868B"/>
</svg>
