<svg width="22" height="22" viewBox="0 0 22 22" fill="none" xmlns="http://www.w3.org/2000/svg">
<path d="M12.8333 1.8335H5.49996C5.01373 1.8335 4.54741 2.02665 4.2036 2.37047C3.85978 2.71428 3.66663 3.1806 3.66663 3.66683V18.3335C3.66663 18.8197 3.85978 19.286 4.2036 19.6299C4.54741 19.9737 5.01373 20.1668 5.49996 20.1668H16.5C16.9862 20.1668 17.4525 19.9737 17.7963 19.6299C18.1401 19.286 18.3333 18.8197 18.3333 18.3335V7.3335M12.8333 1.8335L18.3333 7.3335M12.8333 1.8335V7.3335H18.3333M14.6666 11.9168H7.33329M14.6666 15.5835H7.33329M9.16663 8.25016H7.33329" stroke="white" stroke-width="1.5" stroke-linecap="round" stroke-linejoin="round"/>
</svg>
