<svg width="130" height="130" viewBox="0 0 130 130" fill="none" xmlns="http://www.w3.org/2000/svg">
<path d="M113.75 10.8335L102.917 21.6668M102.917 21.6668L119.167 37.9168L100.208 56.8752L83.9584 40.6252M102.917 21.6668L83.9584 40.6252M61.6959 62.8877C64.4927 65.6473 66.716 68.9329 68.2379 72.5553C69.7597 76.1777 70.5499 80.0653 70.5631 83.9944C70.5763 87.9235 69.8121 91.8164 68.3146 95.4489C66.817 99.0814 64.6158 102.382 61.8375 105.16C59.0592 107.938 55.7588 110.14 52.1262 111.637C48.4937 113.135 44.6009 113.899 40.6718 113.886C36.7427 113.873 32.855 113.082 29.2326 111.56C25.6102 110.039 22.3246 107.815 19.565 105.018C14.1382 99.3997 11.1354 91.8743 11.2033 84.063C11.2712 76.2517 14.4043 68.7796 19.9279 63.256C25.4515 57.7324 32.9237 54.5992 40.7349 54.5313C48.5462 54.4635 56.0717 57.4663 61.6904 62.8931L61.6959 62.8877ZM61.6959 62.8877L83.9584 40.6252" stroke="#33415A" stroke-width="5" stroke-linecap="round" stroke-linejoin="round"/>
</svg>
